#!OML:ASF F:\VICON\USERDATA\INSTALL\Justin_Nancy\Justin_Nancy.ASF
:FULLY-SPECIFIED
:DEGREES
16
root 0.94025 17.3549 -24.5274 7.64095 -4.20176 3.45613
lowerback 12.3103 -1.72246 -6.64569
upperback -0.539003 -3.19171 0.970574
thorax -7.07791 -1.29156 5.36086
lowerneck -23.3247 -2.03378 -8.36479
upperneck 11.2893 -1.71294 9.29219
head 7.40942 -0.280568 4.25023
rclavicle -5.96354e-016 -4.77083e-015
rhumerus -59.1694 15.5297 -99.8732
rradius 111.395
rwrist -12.12
rhand 4.18639 21.4802
rfingers 7.12502
rthumb 29.5936 -6.17991
lclavicle -5.96354e-016 -4.77083e-015
lhumerus -34.8175 -8.51263 93.5339
lradius 117.579
lwrist 32.335
lhand -26.2587 12.6303
lfingers 7.12502
lthumb 0.29585 42.6098
rfemur -46.4236 -6.25037 20.2947
rtibia 72.7535
rfoot -3.63398 0.210648
rtoes -5.61849
lfemur 0.0483418 -0.211049 -29.1134
ltibia 33.3298
lfoot -5.87466 -2.11257
ltoes -24.3971
17
root 0.930876 17.4482 -24.1046 7.64282 -4.74306 3.28843
lowerback 12.2703 -1.71525 -6.40217
upperback -0.542797 -3.14135 1.00664
thorax -7.07618 -1.27547 5.25119
lowerneck -23.3369 -2.16329 -7.79174
upperneck 10.7046 -1.92645 8.65673
head 7.22341 -0.419492 3.90168
rclavicle -9.0944e-015 -4.27387e-014
rhumerus -59.5591 15.3548 -100.01
rradius 111.499
rwrist -12.0486
rhand 4.16502 21.5159
rfingers 7.12502
rthumb 29.5732 -6.14781
lclavicle -9.0944e-015 -4.27387e-014
lhumerus -35.3253 -8.90776 93.6155
lradius 117.601
lwrist 31.8875
lhand -26.4315 13.2667
lfingers 7.12502
lthumb 0.129012 43.2464
rfemur -46.1779 -5.43113 20.7117
rtibia 68.6136
rfoot -4.01447 0.428824
rtoes -8.53271
lfemur 1.70025 -0.0484284 -28.951
ltibia 31.7596
lfoot -1.61141 -3.13048
ltoes -25.0582
18
root 0.918257 17.5398 -23.6732 7.80141 -5.22237 3.08595
lowerback 12.0128 -1.78784 -6.21378
upperback -0.682495 -3.18693 1.16428
thorax -7.07481 -1.29886 5.31166
lowerneck -23.1517 -2.0787 -7.77594
upperneck 10.491 -1.78727 8.46829
head 7.10799 -0.374641 3.84808
rclavicle -2.93704e-014 6.75868e-015
rhumerus -60.2321 15.4388 -100.141
rradius 111.631
rwrist -12.044
rhand 3.93648 21.3158
rfingers 7.12502
rthumb 29.3551 -6.38629
lclavicle -2.93704e-014 6.75868e-015
lhumerus -36.1548 -9.06445 93.8803
lradius 117.682
lwrist 31.2492
lhand -26.5067 13.1716
lfingers 7.12502
lthumb 0.0563274 43.1514
rfemur -45.8875 -4.74435 21.1598
rtibia 64.2123
rfoot -4.11348 0.439085
rtoes -9.72218
lfemur 3.25443 -0.0957663 -28.7229
ltibia 29.9332
lfoot 2.66398 -3.78554
ltoes -24.329
19
root 0.897709 17.6309 -23.2345 7.86611 -6.1482 2.85455
lowerback 11.7445 -1.48016 -6.06675
upperback -1.05986 -2.76162 1.02799
thorax -7.39908 -1.07728 5.01099
lowerneck -21.7882 -2.03181 -7.22714
upperneck 10.2279 -1.9388 8.29801
head 6.80958 -0.46818 3.66933
rclavicle 3.2551e-015 1.09332e-014
rhumerus -61.502 14.4251 -100.556
rradius 111.887
rwrist -11.9375
rhand 3.6552 21.471
rfingers 7.12502
rthumb 29.0865 -6.27785
lclavicle 3.2551e-015 1.09332e-014
lhumerus -37.6542 -10.0172 94.0085
lradius 117.645
lwrist 30.7718
lhand -26.2619 12.6387
lfingers 7.12502
lthumb 0.292824 42.6182
rfemur -45.345 -3.73026 21.5748
rtibia 59.5821
rfoot -4.12683 0.560356
rtoes -10.5906
lfemur 4.91926 0.0942645 -28.5474
ltibia 27.899
lfoot 8.1468 -3.60735
ltoes -21.5571
20
root 0.878123 17.7189 -22.7916 7.88237 -6.88242 2.66604
lowerback 11.4521 -1.35992 -5.91545
upperback -0.801438 -2.55119 1.06076
thorax -6.98571 -1.00315 4.90348
lowerneck -23.0204 -2.16188 -7.03682
upperneck 10.5705 -2.09543 8.18915
head 7.12877 -0.519306 3.59419
rclavicle 1.81391e-015 -1.31198e-014
rhumerus -61.2596 14.2829 -100.495
rradius 111.951
rwrist -12.0248
rhand 3.25488 21.3138
rfingers 7.12502
rthumb 28.7041 -6.50042
lclavicle 1.81391e-015 -1.31198e-014
lhumerus -37.5831 -10.4775 93.9361
lradius 117.368
lwrist 30.5339
lhand -25.6308 12.3834
lfingers 7.12502
lthumb 0.902356 42.3612
rfemur -44.554 -2.9345 21.9192
rtibia 54.8042
rfoot -3.69509 0.967434
rtoes -12.3379
lfemur 6.62698 -0.167659 -28.4806
ltibia 25.8472
lfoot 13.6266 -3.18651
ltoes -17.3863
21
root 0.852656 17.8003 -22.3505 8.06607 -7.57669 2.48382
lowerback 11.1522 -1.30935 -6.06633
upperback -0.976581 -2.47338 1.31135
thorax -6.99655 -0.950147 5.23628
lowerneck -22.8815 -2.08245 -7.16678
upperneck 10.4918 -1.93236 8.06621
head 7.06626 -0.461702 3.59254
rclavicle -1.63003e-014 8.54774e-015
rhumerus -61.8757 14.3541 -100.472
rradius 112.115
rwrist -12.1227
rhand 2.83792 21.1595
rfingers 7.12502
rthumb 28.3057 -6.72157
lclavicle -1.63003e-014 8.54774e-015
lhumerus -38.2439 -10.5549 94.2682
lradius 117.149
lwrist 30.0353
lhand -25.4005 12.4171
lfingers 7.12502
lthumb 1.12475 42.3939
rfemur -43.8182 -2.00373 22.2082
rtibia 49.9201
rfoot -2.84376 1.18914
rtoes -13.7898
lfemur 8.09527 -0.754539 -28.5151
ltibia 24.0151
lfoot 19.0258 -2.42522
ltoes -11.5531
22
root 0.822271 17.8746 -21.9066 8.43577 -8.11016 2.22384
lowerback 10.4511 -1.24187 -6.07051
upperback -1.085 -2.33248 1.46885
thorax -6.72582 -0.887081 5.35677
lowerneck -22.7759 -2.02091 -6.99224
upperneck 10.5379 -1.88235 7.88793
head 7.05623 -0.449096 3.51023
rclavicle -6.01324e-015 1.35174e-014
rhumerus -62.3149 14.0399 -100.459
rradius 112.383
rwrist -12.183
rhand 2.60322 21.2485
rfingers 7.12502
rthumb 28.0813 -6.66955
lclavicle -6.01324e-015 1.35174e-014
lhumerus -38.9357 -11.0574 94.5425
lradius 116.95
lwrist 29.4831
lhand -25.4474 12.0547
lfingers 7.12502
lthumb 1.07941 42.0317
rfemur -43.0735 -1.0724 22.5293
rtibia 44.9421
rfoot -2.14209 1.34417
rtoes -14.9494
lfemur 9.196 -1.50239 -28.4699
ltibia 22.7122
lfoot 22.3898 -2.41258
ltoes -10.0341
23
root 0.810447 17.9471 -21.4564 8.99703 -7.50918 2.17375
lowerback 9.43211 -2.59917 -6.45191
upperback -1.59699 -4.06889 2.61123
thorax -6.35 -1.71076 6.99734
lowerneck -20.8256 -0.965666 -8.93379
upperneck 9.94603 -0.0416777 8.12296
head 6.40206 0.341346 4.09557
rclavicle -1.94809e-014 2.3059e-014
rhumerus -64.0111 17.5297 -100.536
rradius 112.673
rwrist -12.4807
rhand 2.1658 21.2218
rfingers 7.12502
rthumb 27.6631 -6.76403
lclavicle -1.94809e-014 2.3059e-014
lhumerus -40.401 -7.71934 95.2065
lradius 117.022
lwrist 28.7123
lhand -25.2621 11.6819
lfingers 7.12502
lthumb 1.25846 41.6579
rfemur -42.374 -1.17225 22.6266
rtibia 39.9647
rfoot -1.45677 1.50862
rtoes -15.8571
lfemur 9.77223 -3.21519 -28.486
ltibia 21.9978
lfoot 24.757 -3.17372
ltoes -8.69174
24
root 0.815753 18.0117 -21.0126 9.44367 -6.1978 2.12072
lowerback 6.57007 -3.7334 -4.17637
upperback -0.409912 -5.2419 1.56168
thorax -3.58067 -2.51289 4.43713
lowerneck -20.5998 -0.550976 -8.26225
upperneck 8.45208 0.257618 8.9676
head 5.86538 0.584085 4.26793
rclavicle -3.03147e-015 5.56597e-015
rhumerus -62.3376 17.563 -101.982
rradius 112.655
rwrist -12.0726
rhand 1.4636 21.1253
rfingers 7.12502
rthumb 26.9915 -6.96639
lclavicle -3.03147e-015 5.56597e-015
lhumerus -39.1057 -8.41331 92.8545
lradius 116.73
lwrist 28.9709
lhand -25.029 11.7029
lfingers 7.12502
lthumb 1.48356 41.6775
rfemur -41.4021 -1.97489 22.7569
rtibia 35.0084
rfoot -0.734866 1.61516
rtoes -17.1791
lfemur 10.0775 -5.25908 -28.3018
ltibia 21.9442
lfoot 27.5155 -4.4481
ltoes -0.999569
25
root 0.800422 18.0519 -20.5888 9.41373 -7.33091 2.12552
lowerback 6.27146 -3.46907 -3.90469
upperback -0.313718 -4.86944 1.17866
thorax -3.40709 -2.34207 3.83257
lowerneck -20.3744 -0.392723 -7.70131
upperneck 8.22287 0.326515 8.87874
head 5.75213 0.624924 4.14652
rclavicle -2.85504e-014 -1.19271e-014
rhumerus -62.4328 17.015 -102.426
rradius 113.047
rwrist -11.8814
rhand 1.51519 21.1534
rfingers 7.12502
rthumb 27.0408 -6.93068
lclavicle -2.85504e-014 -1.19271e-014
lhumerus -39.5692 -9.13318 92.4197
lradius 116.641
lwrist 29.0836
lhand -24.8151 11.639
lfingers 7.12502
lthumb 1.69014 41.612
rfemur -40.2307 -1.2294 22.8127
rtibia 30.4789
rfoot 0.0612265 2.17803
rtoes -17.7354
lfemur 10.74 -5.16545 -28.7749
ltibia 22.0128
lfoot 28.2002 -5.92987
ltoes 2.08286
26
root 0.78547 18.0993 -20.1615 9.48939 -7.64693 2.11998
lowerback 8.4 -2.82869 -5.82429
upperback -1.63543 -4.23678 2.79335
thorax -5.80349 -1.84046 6.77824
lowerneck -20.9314 -0.79368 -8.7837
upperneck 9.84519 0.236923 7.61595
head 6.36039 0.439668 3.93211
rclavicle -2.0773e-014 -7.95139e-016
rhumerus -64.3096 16.9339 -99.9723
rradius 113.81
rwrist -12.1751
rhand 1.78692 21.2043
rfingers 7.12502
rthumb 27.3008 -6.83913
lclavicle -2.0773e-014 -7.95139e-016
lhumerus -41.5891 -8.97744 95.8747
lradius 116.446
lwrist 28.5349
lhand -24.3989 10.9088
lfingers 7.12502
lthumb 2.09208 40.8782
rfemur -39.1407 -1.01218 22.9222
rtibia 26.477
rfoot 0.660864 2.10317
rtoes -17.5569
lfemur 11.1566 -5.558 -29.0225
ltibia 22.3045
lfoot 27.7008 -7.20646
ltoes 0.725594
